<svg xmlns="http://www.w3.org/2000/svg" viewBox="0 0 64 64">
  <title>Dreamcatcher</title>
  <rect width="64" height="64" rx="14" fill="#1c1a22"/>
  <path d="M 32.00 32.00 L 32.09 31.90 L 32.16 31.81 L 32.23 31.73 L 32.31 31.66 L 32.39 31.60 L 32.47 31.54 L 32.55 31.50 L 32.63 31.46 L 32.72 31.43 L 32.80 31.40 L 32.89 31.39 L 32.97 31.38 L 33.06 31.37 L 33.14 31.37 L 33.23 31.38 L 33.31 31.39 L 33.39 31.41 L 33.47 31.43 L 33.55 31.46 L 33.63 31.49 L 33.71 31.53 L 33.79 31.57 L 33.86 31.62 L 33.94 31.67 L 34.01 31.73 L 34.08 31.79 L 34.15 31.85 L 34.22 31.92 L 34.28 32.00 L 34.35 32.08 L 34.41 32.16 L 34.46 32.25 L 34.52 32.34 L 34.57 32.44 L 34.61 32.54 L 34.66 32.65 L 34.69 32.76 L 34.73 32.87 L 34.76 32.99 L 34.78 33.11 L 34.80 33.24 L 34.82 33.36 L 34.83 33.50 L 34.83 33.63 L 34.82 33.77 L 34.81 33.91 L 34.80 34.05 L 34.77 34.19 L 34.74 34.34 L 34.71 34.48 L 34.66 34.63 L 34.61 34.78 L 34.55 34.93 L 34.49 35.07 L 34.41 35.22 L 34.33 35.37 L 34.24 35.51 L 34.14 35.65 L 34.03 35.80 L 33.92 35.93 L 33.80 36.07 L 33.67 36.20 L 33.53 36.33 L 33.38 36.45 L 33.23 36.57 L 33.07 36.69 L 32.90 36.80 L 32.72 36.90 L 32.54 37.00 L 32.35 37.09 L 32.16 37.17 L 31.95 37.25 L 31.75 37.31 L 31.53 37.37 L 31.31 37.42 L 31.09 37.47 L 30.86 37.50 L 30.63 37.52 L 30.39 37.54 L 30.15 37.54 L 29.91 37.53 L 29.66 37.51 L 29.41 37.48 L 29.16 37.44 L 28.91 37.39 L 28.66 37.33 L 28.41 37.26 L 28.16 37.17 L 27.91 37.07 L 27.66 36.96 L 27.41 36.84 L 27.17 36.71 L 26.93 36.56 L 26.69 36.40 L 26.46 36.24 L 26.23 36.05 L 26.01 35.86 L 25.80 35.66 L 25.59 35.44 L 25.38 35.22 L 25.19 34.98 L 25.00 34.73 L 24.83 34.47 L 24.66 34.20 L 24.50 33.93 L 24.36 33.64 L 24.22 33.34 L 24.10 33.04 L 23.98 32.72 L 23.88 32.40 L 23.80 32.08 L 23.72 31.74 L 23.66 31.40 L 23.61 31.06 L 23.58 30.71 L 23.57 30.35 L 23.56 29.99 L 23.58 29.63 L 23.60 29.27 L 23.65 28.90 L 23.71 28.54 L 23.79 28.17 L 23.88 27.81 L 23.99 27.44 L 24.11 27.08 L 24.25 26.72 L 24.41 26.36 L 24.59 26.01 L 24.78 25.66 L 24.98 25.31 L 25.21 24.98 L 25.45 24.65 L 25.70 24.33 L 25.97 24.01 L 26.26 23.71 L 26.56 23.41 L 26.87 23.13 L 27.20 22.86 L 27.54 22.60 L 27.90 22.35 L 28.27 22.12 L 28.65 21.90 L 29.04 21.70 L 29.45 21.51 L 29.86 21.33 L 30.29 21.18 L 30.72 21.04 L 31.17 20.91 L 31.62 20.81 L 32.08 20.72 L 32.54 20.65 L 33.01 20.61 L 33.49 20.58 L 33.97 20.57 L 34.45 20.58 L 34.93 20.61 L 35.42 20.67 L 35.91 20.74 L 36.40 20.84 L 36.88 20.95 L 37.37 21.09 L 37.85 21.25 L 38.32 21.43 L 38.80 21.63 L 39.26 21.85 L 39.72 22.09 L 40.17 22.36 L 40.62 22.64 L 41.05 22.95 L 41.47 23.27 L 41.88 23.61 L 42.28 23.98 L 42.67 24.36 L 43.04 24.76 L 43.40 25.18 L 43.74 25.61 L 44.07 26.06 L 44.37 26.53 L 44.66 27.02 L 44.93 27.51 L 45.18 28.03 L 45.41 28.55 L 45.62 29.09 L 45.81 29.64 L 45.98 30.20 L 46.12 30.76 L 46.24 31.34 L 46.34 31.93 L 46.41 32.52 L 46.46 33.12 L 46.48 33.72 L 46.48 34.33 L 46.45 34.94 L 46.39 35.55 L 46.31 36.16 L 46.21 36.77 L 46.08 37.38 L 45.92 37.99 L 45.73 38.59 L 45.51 39.21 L 45.82 38.46 L 46.22 37.74 L 46.71 37.09 L 47.28 36.50 L 47.92 36.00 L 48.62 35.58 L 49.38 35.26 L 50.16 35.04 L 50.97 34.92 L 51.79 34.91 L 52.60 35.01 L 53.39 35.21 L 54.15 35.52 L 54.87 35.92 L 55.52 36.41 L 56.10 36.98 L 56.61 37.62 L 57.03 38.32 L 57.35 39.08 L 57.57 39.86 L 57.69 40.67 L 57.69 41.49 L 57.60 42.30 L 57.40 43.09 L 57.70 42.00 L 57.97 40.88 L 58.19 39.76 L 58.36 38.63 L 58.48 37.50 L 58.56 36.37 L 58.58 35.24 L 58.56 34.12 L 58.49 33.01 L 58.38 31.91 L 58.22 30.82 L 58.02 29.74 L 57.77 28.67 L 57.47 27.63 L 57.14 26.60 L 56.76 25.59 L 56.35 24.60 L 55.89 23.64 L 55.40 22.70 L 54.87 21.79 L 54.30 20.91 L 53.70 20.05 L 53.07 19.23 L 52.41 18.43 L 51.72 17.67 L 51.00 16.95 L 50.26 16.26 L 49.49 15.60 L 48.69 14.98 L 47.88 14.40 L 47.05 13.86 L 46.20 13.35 L 45.33 12.89 L 44.45 12.46 L 43.56 12.08 L 42.65 11.73 L 41.74 11.43 L 40.82 11.16 L 39.90 10.94 L 38.97 10.75 L 38.04 10.61 L 37.12 10.51 L 36.19 10.45 L 35.27 10.42 L 34.35 10.44 L 33.44 10.50 L 32.54 10.59 L 31.65 10.72 L 30.77 10.89 L 29.90 11.09 L 29.05 11.33 L 28.21 11.60 L 27.39 11.91 L 26.60 12.25 L 25.82 12.62 L 25.06 13.03 L 24.32 13.46 L 23.61 13.92 L 22.93 14.40 L 22.27 14.91 L 21.63 15.45 L 21.03 16.01 L 20.45 16.59 L 19.90 17.19 L 19.38 17.81 L 18.90 18.45 L 18.44 19.10 L 18.01 19.77 L 17.62 20.45 L 17.26 21.14 L 16.93 21.84 L 16.63 22.55 L 16.37 23.27 L 16.14 23.99 L 15.94 24.72 L 15.78 25.45 L 15.65 26.18 L 15.55 26.91 L 15.48 27.64 L 15.44 28.37 L 15.44 29.09 L 15.47 29.80 L 15.53 30.51 L 15.61 31.21 L 15.73 31.90 L 15.88 32.57 L 16.05 33.24 L 16.25 33.89 L 16.48 34.53 L 16.74 35.15 L 17.01 35.75 L 17.32 36.34 L 17.64 36.91 L 17.99 37.46 L 18.35 37.99 L 18.74 38.50 L 19.15 38.98 L 19.57 39.45 L 20.01 39.89 L 20.46 40.30 L 20.93 40.70 L 21.41 41.07 L 21.90 41.41 L 22.40 41.73 L 22.92 42.02 L 23.43 42.29 L 23.96 42.54 L 24.49 42.75 L 25.03 42.94 L 25.56 43.11 L 26.10 43.25 L 26.64 43.36 L 27.18 43.45 L 27.72 43.52 L 28.25 43.56 L 28.78 43.57 L 29.31 43.56 L 29.83 43.53 L 30.34 43.47 L 30.84 43.40 L 31.33 43.30 L 31.81 43.17 L 32.29 43.03 L 32.75 42.87 L 33.19 42.69 L 33.63 42.49 L 34.04 42.28 L 34.45 42.05 L 34.84 41.80 L 35.21 41.54 L 35.56 41.26 L 35.90 40.97 L 36.22 40.67 L 36.52 40.36 L 36.80 40.03 L 37.06 39.70 L 37.31 39.36 L 37.53 39.02 L 37.74 38.67 L 37.92 38.31 L 38.09 37.95 L 38.24 37.59 L 38.36 37.22 L 38.47 36.85 L 38.56 36.49 L 38.63 36.12 L 38.68 35.76 L 38.71 35.40 L 38.72 35.05 L 38.71 34.70 L 38.69 34.35 L 38.65 34.01 L 38.59 33.68 L 38.52 33.36 L 38.43 33.05 L 38.33 32.75 L 38.21 32.45 L 38.08 32.17 L 37.94 31.90 L 37.78 31.64 L 37.62 31.40 L 37.44 31.17 L 37.26 30.95 L 37.06 30.75 L 36.86 30.56 L 36.65 30.39 L 36.43 30.23 L 36.21 30.09 L 35.99 29.96 L 35.76 29.85 L 35.53 29.76 L 35.30 29.68 L 35.07 29.62 L 34.84 29.57 L 34.62 29.54 L 34.39 29.52 L 34.17 29.52 L 33.95 29.53 L 33.74 29.56 L 33.54 29.60 L 33.34 29.66 L 33.16 29.73 L 32.98 29.81 L 32.81 29.90 L 32.65 30.00 L 32.51 30.11 L 32.38 30.23 L 32.26 30.36 L 32.15 30.49 L 32.06 30.63 L 31.99 30.77 L 31.93 30.92 L 31.88 31.06 L 31.85 31.21 L 31.83 31.35 L 31.83 31.49 L 31.85 31.63 L 31.88 31.76 L 31.92 31.89 L 32.00 32.00 Z" fill="#e5a9e5"/>
</svg>
