<svg xmlns="http://www.w3.org/2000/svg" viewBox="0 0 64 64">
  <title>Dreamcatcher</title>
  <g transform="rotate(163 32 32) translate(-13.32 -11.62) scale(1.4749)">
    <path d="M 32.00 32.00 L 31.99 31.95 L 31.99 31.90 L 31.99 31.84 L 32.00 31.79 L 32.00 31.74 L 32.01 31.69 L 32.03 31.63 L 32.05 31.58 L 32.07 31.53 L 32.09 31.49 L 32.12 31.44 L 32.15 31.39 L 32.19 31.35 L 32.23 31.30 L 32.27 31.26 L 32.31 31.22 L 32.36 31.19 L 32.41 31.15 L 32.46 31.12 L 32.52 31.09 L 32.58 31.06 L 32.64 31.04 L 32.70 31.02 L 32.76 31.00 L 32.83 30.99 L 32.90 30.98 L 32.97 30.97 L 33.04 30.97 L 33.11 30.97 L 33.19 30.97 L 33.26 30.98 L 33.34 30.99 L 33.41 31.01 L 33.49 31.03 L 33.57 31.05 L 33.64 31.08 L 33.72 31.11 L 33.80 31.14 L 33.87 31.18 L 33.95 31.23 L 34.02 31.28 L 34.09 31.33 L 34.17 31.39 L 34.24 31.45 L 34.30 31.51 L 34.37 31.58 L 34.44 31.66 L 34.50 31.73 L 34.56 31.81 L 34.62 31.90 L 34.67 31.99 L 34.72 32.08 L 34.77 32.17 L 34.81 32.27 L 34.85 32.37 L 34.89 32.48 L 34.93 32.58 L 34.96 32.69 L 34.98 32.81 L 35.00 32.92 L 35.02 33.04 L 35.03 33.16 L 35.04 33.28 L 35.04 33.41 L 35.04 33.53 L 35.03 33.66 L 35.02 33.79 L 35.00 33.92 L 34.98 34.05 L 34.95 34.18 L 34.91 34.31 L 34.87 34.44 L 34.83 34.57 L 34.78 34.70 L 34.72 34.83 L 34.66 34.96 L 34.59 35.09 L 34.52 35.21 L 34.44 35.34 L 34.35 35.46 L 34.26 35.59 L 34.17 35.70 L 34.07 35.82 L 33.96 35.94 L 33.85 36.05 L 33.73 36.16 L 33.61 36.26 L 33.48 36.36 L 33.35 36.46 L 33.21 36.55 L 33.06 36.64 L 32.92 36.73 L 32.77 36.81 L 32.61 36.88 L 32.45 36.95 L 32.28 37.02 L 32.12 37.08 L 31.94 37.13 L 31.77 37.18 L 31.59 37.22 L 31.41 37.25 L 31.22 37.28 L 31.04 37.30 L 30.85 37.32 L 30.65 37.33 L 30.46 37.33 L 30.26 37.33 L 30.07 37.31 L 29.87 37.29 L 29.67 37.27 L 29.47 37.23 L 29.27 37.19 L 29.07 37.14 L 28.87 37.08 L 28.68 37.02 L 28.48 36.95 L 28.28 36.87 L 28.09 36.78 L 27.89 36.68 L 27.70 36.58 L 27.51 36.47 L 27.32 36.35 L 27.14 36.22 L 26.96 36.09 L 26.78 35.95 L 26.61 35.80 L 26.44 35.65 L 26.28 35.48 L 26.12 35.31 L 25.96 35.14 L 25.81 34.95 L 25.67 34.76 L 25.53 34.57 L 25.40 34.37 L 25.27 34.16 L 25.15 33.94 L 25.04 33.72 L 24.93 33.50 L 24.84 33.27 L 24.74 33.03 L 24.66 32.79 L 24.59 32.55 L 24.52 32.30 L 24.46 32.05 L 24.41 31.79 L 24.37 31.53 L 24.34 31.27 L 24.32 31.00 L 24.30 30.74 L 24.30 30.47 L 24.30 30.20 L 24.32 29.92 L 24.34 29.65 L 24.38 29.38 L 24.42 29.10 L 24.48 28.83 L 24.54 28.55 L 24.61 28.28 L 24.70 28.01 L 24.79 27.74 L 24.89 27.47 L 25.01 27.20 L 25.13 26.94 L 25.27 26.67 L 25.41 26.42 L 25.56 26.16 L 25.73 25.91 L 25.90 25.67 L 26.08 25.42 L 26.27 25.19 L 26.47 24.96 L 26.68 24.73 L 26.90 24.51 L 27.13 24.30 L 27.37 24.10 L 27.61 23.90 L 27.87 23.71 L 28.13 23.53 L 28.39 23.35 L 28.67 23.19 L 28.95 23.03 L 29.24 22.88 L 29.54 22.74 L 29.84 22.61 L 30.15 22.49 L 30.46 22.39 L 30.78 22.29 L 31.10 22.20 L 31.43 22.12 L 31.77 22.06 L 32.10 22.00 L 32.44 21.96 L 32.78 21.93 L 33.13 21.91 L 33.48 21.90 L 33.83 21.90 L 34.18 21.92 L 34.53 21.95 L 34.88 21.99 L 35.24 22.04 L 35.59 22.11 L 35.94 22.19 L 36.29 22.28 L 36.64 22.38 L 36.98 22.50 L 37.33 22.62 L 37.67 22.77 L 38.01 22.92 L 38.34 23.08 L 38.67 23.26 L 38.99 23.45 L 39.31 23.65 L 39.63 23.87 L 39.93 24.09 L 40.23 24.33 L 40.53 24.58 L 40.81 24.84 L 41.09 25.11 L 41.36 25.39 L 41.63 25.68 L 41.88 25.98 L 42.12 26.29 L 42.35 26.61 L 42.58 26.94 L 42.79 27.28 L 42.99 27.63 L 43.18 27.98 L 43.36 28.35 L 43.53 28.72 L 43.68 29.10 L 43.83 29.48 L 43.96 29.87 L 44.07 30.27 L 44.18 30.67 L 44.27 31.08 L 44.34 31.50 L 44.41 31.91 L 44.45 32.33 L 44.49 32.76 L 44.51 33.18 L 44.51 33.61 L 44.50 34.04 L 44.48 34.47 L 44.44 34.90 L 44.38 35.34 L 44.31 35.77 L 44.23 36.20 L 44.13 36.63 L 44.01 37.05 L 43.88 37.48 L 43.74 37.90 L 43.58 38.32 L 43.40 38.73 L 43.22 39.14 L 43.01 39.55 L 42.79 39.94 L 42.56 40.34 L 42.31 40.72 L 42.05 41.10 L 41.77 41.47 L 41.48 41.83 L 41.18 42.19 L 40.87 42.53 L 40.54 42.87 L 40.20 43.19 L 39.84 43.50 L 39.48 43.81 L 39.10 44.10 L 38.72 44.38 L 38.32 44.64 L 37.91 44.90 L 37.49 45.14 L 37.06 45.36 L 36.62 45.58 L 36.18 45.78 L 35.72 45.96 L 35.26 46.13 L 34.79 46.28 L 34.32 46.42 L 33.84 46.54 L 33.35 46.65 L 32.86 46.74 L 32.36 46.81 L 31.86 46.87 L 31.36 46.90 L 30.85 46.93 L 30.34 46.93 L 29.83 46.92 L 29.32 46.89 L 28.80 46.84 L 28.29 46.77 L 27.78 46.69 L 27.27 46.59 L 26.76 46.47 L 26.26 46.34 L 25.76 46.18 L 25.26 46.01 L 24.77 45.82 L 24.28 45.61 L 23.79 45.39 L 23.32 45.15 L 22.85 44.89 L 22.39 44.62 L 21.93 44.32 L 21.49 44.02 L 21.05 43.69 L 20.63 43.35 L 20.21 43.00 L 19.81 42.63 L 19.42 42.25 L 19.04 41.85 L 18.67 41.43 L 18.31 41.01 L 17.97 40.57 L 17.64 40.11 L 17.33 39.65 L 17.04 39.17 L 16.75 38.68 L 16.49 38.18 L 16.24 37.67 L 16.01 37.15 L 15.79 36.63 L 15.59 36.09 L 15.41 35.54 L 15.25 34.99 L 15.11 34.43 L 14.98 33.87 L 14.88 33.29 L 14.79 32.72 L 14.73 32.14 L 14.68 31.55 L 14.65 30.96 L 14.64 30.37 L 14.66 29.78 L 14.69 29.19 L 14.74 28.60 L 14.82 28.00 L 14.91 27.41 L 15.03 26.82 L 15.16 26.23 L 15.32 25.65 L 15.49 25.07 L 15.69 24.50 L 15.90 23.93 L 16.14 23.36 L 16.40 22.80 L 16.67 22.26 L 16.97 21.71 L 17.28 21.18 L 17.61 20.66 L 17.96 20.14 L 18.33 19.64 L 18.72 19.15 L 19.13 18.67 L 19.55 18.21 L 19.99 17.75 L 20.44 17.32 L 20.91 16.89 L 21.40 16.48 L 21.90 16.09 L 22.42 15.71 L 22.95 15.35 L 23.49 15.01 L 24.05 14.68 L 24.62 14.38 L 25.20 14.09 L 25.79 13.82 L 26.39 13.57 L 27.01 13.34 L 27.63 13.13 L 28.26 12.94 L 28.89 12.78 L 29.54 12.63 L 30.19 12.51 L 30.84 12.40 L 31.51 12.32 L 32.17 12.27 L 32.84 12.23 L 33.51 12.22 L 34.18 12.23 L 34.86 12.26 L 35.53 12.32 L 36.20 12.40 L 36.88 12.50 L 37.55 12.62 L 38.21 12.77 L 38.88 12.94 L 39.54 13.14 L 40.19 13.36 L 40.84 13.60 L 41.48 13.86 L 42.11 14.14 L 42.74 14.45 L 43.35 14.78 L 43.96 15.13 L 44.55 15.50 L 45.13 15.89 L 45.70 16.31 L 46.26 16.74 L 46.81 17.19 L 45.47 19.94" fill="none" stroke="#000" stroke-width="7.255" stroke-linecap="round" stroke-linejoin="round"/>
  </g>
</svg>
